<?xml version="1.0" encoding="UTF-8"?><svg id="Layer_2" xmlns="http://www.w3.org/2000/svg" xmlns:xlink="http://www.w3.org/1999/xlink" viewBox="0 0 131.43 129.01"><defs><style>.cls-1{stroke-width:0px;}</style><symbol id="New_Symbol_1" viewBox="0 0 131.43 129.01"><path class="cls-1" d="M59.51,60.36c-.39,0-.79-.13-1.11-.42-.69-.61-.76-1.67-.15-2.36.2-.22,19.94-22.97,10.19-43.32-.4-.83-.04-1.83.79-2.23.82-.41,1.83-.05,2.23.78,10.7,22.37-9.82,45.99-10.7,46.98-.33.37-.79.56-1.25.56Z"/><path class="cls-1" d="M57.27,47.56c-.56,0-1.12-.28-1.43-.8-6.4-10.47-8.39-20.18-5.93-28.88C53.29,5.92,63.86.41,64.31.18c.81-.42,1.83-.08,2.25.73.42.82.09,1.83-.73,2.25-.1.05-9.75,5.12-12.72,15.67-2.18,7.75-.3,16.56,5.58,26.18.48.79.23,1.82-.55,2.3-.27.16-.57.24-.87.24Z"/><path class="cls-1" d="M104.86,74.28c-17.37,0-32.43-13.09-33.22-13.79-.69-.61-.76-1.67-.14-2.36.61-.69,1.67-.76,2.36-.14.23.2,22.96,19.93,43.32,10.19.83-.4,1.84-.04,2.23.78.4.83.04,1.83-.79,2.23-4.6,2.21-9.26,3.08-13.76,3.08Z"/><path class="cls-1" d="M129.76,66.47c-.61,0-1.2-.33-1.49-.91-.05-.1-5.12-9.76-15.67-12.72-7.75-2.18-16.56-.3-26.18,5.58-.8.48-1.82.23-2.3-.55-.48-.79-.23-1.82.55-2.3,10.46-6.4,20.17-8.4,28.87-5.93,11.97,3.38,17.47,13.96,17.7,14.41.42.82.09,1.83-.73,2.25-.24.12-.5.18-.76.18Z"/><path class="cls-1" d="M61.47,117.15c-.62,0-1.22-.35-1.51-.95-10.71-22.37,9.82-45.99,10.7-46.98.61-.69,1.67-.76,2.36-.14.69.61.76,1.67.15,2.36-.2.22-19.94,22.97-10.19,43.32.4.83.04,1.83-.79,2.23-.23.11-.48.16-.72.16Z"/><path class="cls-1" d="M66.36,129.01c-.61,0-1.2-.33-1.49-.91-.42-.82-.09-1.83.73-2.25.1-.05,9.75-5.12,12.72-15.67,2.18-7.75.3-16.56-5.58-26.18-.48-.79-.23-1.82.55-2.3.8-.48,1.82-.23,2.3.55,6.4,10.47,8.39,20.18,5.93,28.88-3.38,11.97-13.96,17.47-14.41,17.7-.24.12-.5.18-.76.18Z"/><path class="cls-1" d="M58.68,71.45c-.39,0-.79-.13-1.11-.42-.23-.2-22.97-19.93-43.32-10.19-.82.42-1.83.05-2.23-.78s-.04-1.83.79-2.23c22.36-10.72,45.99,9.82,46.98,10.7.69.61.76,1.67.14,2.36-.33.37-.79.56-1.25.56Z"/><path class="cls-1" d="M25.32,80.41c-2.55,0-5.03-.34-7.44-1.02C5.91,76,.41,65.43.18,64.98c-.42-.82-.09-1.83.73-2.25.83-.42,1.83-.09,2.25.72.05.1,5.12,9.76,15.67,12.72,7.75,2.16,16.56.29,26.18-5.58.79-.48,1.82-.23,2.3.55s.23,1.82-.55,2.3c-7.57,4.63-14.75,6.95-21.44,6.95Z"/></symbol></defs><g id="Layer_1-2"><use width="131.43" height="129.01" xlink:href="#New_Symbol_1"/></g></svg>