<?xml version="1.0" encoding="UTF-8"?><svg id="Layer_2" xmlns="http://www.w3.org/2000/svg" xmlns:xlink="http://www.w3.org/1999/xlink" viewBox="0 0 181.73 118.16"><defs><style>.cls-1{stroke-width:0px;}</style><symbol id="Logotyp" viewBox="0 0 181.73 118.16"><path class="cls-1" d="M33.56,35.25c-.14,0-.28-.05-.39-.15-.24-.21-.27-.59-.05-.83.07-.08,7-8.06,3.58-15.21-.14-.29-.02-.64.28-.78.29-.15.64-.02.78.28,3.76,7.85-3.45,16.15-3.76,16.5-.12.13-.28.2-.44.2Z"/><path class="cls-1" d="M32.78,30.76c-.2,0-.39-.1-.5-.28-2.25-3.67-2.95-7.09-2.08-10.14,1.19-4.2,4.9-6.14,5.06-6.22.29-.14.64-.03.79.26.15.29.03.64-.25.79-.03.02-3.42,1.8-4.47,5.5-.76,2.72-.11,5.81,1.96,9.19.17.28.08.64-.19.81-.1.06-.2.09-.31.09Z"/><path class="cls-1" d="M49.48,40.14c-6.1,0-11.38-4.59-11.66-4.84-.24-.21-.27-.59-.05-.83.21-.24.59-.27.83-.05.08.07,8.06,7,15.21,3.58.29-.14.64-.02.78.28.14.29.02.64-.28.78-1.62.77-3.25,1.08-4.83,1.08Z"/><path class="cls-1" d="M58.23,37.4c-.21,0-.42-.12-.52-.32-.02-.04-1.8-3.43-5.5-4.47-2.72-.76-5.81-.11-9.19,1.96-.28.17-.64.08-.81-.19-.17-.28-.08-.64.19-.81,3.67-2.25,7.08-2.95,10.14-2.08,4.2,1.19,6.13,4.9,6.21,5.06.15.29.03.64-.26.79-.09.04-.18.06-.27.06Z"/><path class="cls-1" d="M34.25,55.19c-.22,0-.43-.12-.53-.33-3.76-7.85,3.45-16.15,3.76-16.5.21-.24.59-.27.83-.05.24.21.27.59.05.83-.07.08-7,8.06-3.58,15.21.14.29.02.64-.28.78-.08.04-.17.06-.25.06Z"/><path class="cls-1" d="M35.97,59.35c-.21,0-.42-.12-.52-.32-.15-.29-.03-.64.25-.79.03-.02,3.42-1.8,4.47-5.5.76-2.72.11-5.81-1.96-9.19-.17-.28-.08-.64.19-.81.28-.17.64-.08.81.19,2.25,3.67,2.95,7.09,2.08,10.14-1.19,4.2-4.9,6.14-5.06,6.22-.08.04-.18.06-.27.06Z"/><path class="cls-1" d="M33.27,39.14c-.14,0-.28-.05-.39-.15-.08-.07-8.06-7-15.21-3.58-.29.15-.64.02-.78-.28s-.02-.64.28-.78c7.85-3.77,16.15,3.45,16.49,3.76.24.21.27.59.05.83-.12.13-.28.2-.44.2Z"/><path class="cls-1" d="M21.56,42.29c-.9,0-1.77-.12-2.61-.36-4.2-1.19-6.13-4.9-6.21-5.06-.15-.29-.03-.64.26-.79.29-.15.64-.03.79.25.02.04,1.8,3.43,5.5,4.47,2.72.76,5.81.11,9.19-1.96.28-.17.64-.08.81.19.17.28.08.64-.19.81-2.66,1.62-5.18,2.44-7.53,2.44Z"/><path class="cls-1" d="M142.67,35.25c-.14,0-.28-.05-.39-.15-.24-.21-.27-.59-.05-.83.07-.08,7-8.06,3.58-15.21-.14-.29-.02-.64.28-.78.29-.15.64-.02.78.28,3.76,7.85-3.45,16.15-3.76,16.5-.12.13-.28.2-.44.2Z"/><path class="cls-1" d="M141.89,30.76c-.2,0-.39-.1-.5-.28-2.25-3.67-2.95-7.09-2.08-10.14,1.19-4.2,4.9-6.14,5.06-6.22.29-.15.64-.03.79.26.15.29.03.64-.25.79-.03.02-3.42,1.8-4.47,5.5-.76,2.72-.11,5.81,1.96,9.19.17.28.08.64-.19.81-.1.06-.2.09-.31.09Z"/><path class="cls-1" d="M158.59,40.14c-6.1,0-11.38-4.59-11.66-4.84-.24-.21-.27-.59-.05-.83.21-.24.59-.27.83-.05.08.07,8.06,7,15.21,3.58.29-.14.64-.02.78.28.14.29.02.64-.28.78-1.62.77-3.25,1.08-4.83,1.08Z"/><path class="cls-1" d="M167.34,37.4c-.21,0-.42-.12-.52-.32-.02-.04-1.8-3.43-5.5-4.47-2.72-.76-5.81-.11-9.19,1.96-.28.17-.64.08-.81-.19-.17-.28-.08-.64.19-.81,3.67-2.25,7.08-2.95,10.14-2.08,4.2,1.19,6.14,4.9,6.22,5.06.15.29.03.64-.26.79-.09.04-.18.06-.27.06Z"/><path class="cls-1" d="M143.36,55.19c-.22,0-.43-.12-.53-.33-3.76-7.85,3.45-16.15,3.76-16.5.21-.24.59-.27.83-.05.24.21.27.59.05.83-.07.08-7,8.06-3.58,15.21.14.29.02.64-.28.78-.08.04-.17.06-.25.06Z"/><path class="cls-1" d="M145.08,59.35c-.21,0-.42-.12-.52-.32-.15-.29-.03-.64.25-.79.03-.02,3.42-1.8,4.47-5.5.76-2.72.11-5.81-1.96-9.19-.17-.28-.08-.64.19-.81.28-.17.64-.08.81.19,2.25,3.67,2.95,7.09,2.08,10.14-1.19,4.2-4.9,6.14-5.06,6.22-.08.04-.18.06-.27.06Z"/><path class="cls-1" d="M142.38,39.14c-.14,0-.28-.05-.39-.15-.08-.07-8.06-7-15.21-3.58-.29.15-.64.02-.78-.28s-.02-.64.28-.78c7.85-3.76,16.15,3.45,16.49,3.76.24.21.27.59.05.83-.12.13-.28.2-.44.2Z"/><path class="cls-1" d="M130.67,42.29c-.9,0-1.77-.12-2.61-.36-4.2-1.19-6.14-4.9-6.22-5.06-.15-.29-.03-.64.26-.79.29-.15.64-.03.79.25.02.04,1.8,3.43,5.5,4.47,2.72.76,5.81.1,9.19-1.96.28-.17.64-.08.81.19s.08.64-.19.81c-2.66,1.62-5.18,2.44-7.53,2.44Z"/><path class="cls-1" d="M88.12,93.47s7.3-8.26,3.67-15.85"/><path class="cls-1" d="M88.12,94.05c-.14,0-.28-.05-.39-.15-.24-.21-.27-.59-.05-.83.07-.08,7-8.06,3.58-15.21-.14-.29-.02-.64.28-.78.29-.14.64-.02.78.28,3.76,7.85-3.45,16.15-3.76,16.5-.12.13-.28.2-.44.2Z"/><path class="cls-1" d="M90.07,73.45s-9.32,4.75-2.74,15.52"/><path class="cls-1" d="M87.33,89.56c-.2,0-.39-.1-.5-.28-2.25-3.67-2.95-7.08-2.08-10.14,1.19-4.2,4.9-6.14,5.06-6.22.29-.15.64-.03.79.26.15.29.03.64-.25.79-.03.02-3.43,1.8-4.47,5.5-.76,2.72-.11,5.81,1.96,9.19.17.28.08.64-.19.81-.1.06-.2.09-.31.09Z"/><path class="cls-1" d="M92.77,93.66s8.26,7.3,15.85,3.67"/><path class="cls-1" d="M104.04,98.94c-6.1,0-11.38-4.59-11.66-4.84-.24-.21-.27-.59-.05-.83.21-.24.59-.27.83-.05.08.07,8.06,7,15.21,3.58.29-.15.64-.02.78.28.14.29.02.64-.28.78-1.62.77-3.25,1.08-4.83,1.08Z"/><path class="cls-1" d="M112.78,95.61s-4.75-9.32-15.52-2.74"/><path class="cls-1" d="M112.78,96.2c-.21,0-.42-.12-.52-.32-.02-.04-1.8-3.43-5.5-4.47-2.72-.76-5.81-.1-9.19,1.96-.28.17-.64.08-.81-.19-.17-.28-.08-.64.19-.81,3.67-2.25,7.08-2.95,10.14-2.08,4.2,1.19,6.13,4.9,6.21,5.06.15.29.03.64-.26.79-.09.04-.18.06-.27.06Z"/><path class="cls-1" d="M92.48,97.55s-7.3,8.26-3.67,15.85"/><path class="cls-1" d="M88.81,113.99c-.22,0-.43-.12-.53-.33-3.76-7.85,3.45-16.15,3.76-16.5.21-.24.59-.27.83-.05.24.21.27.59.05.83-.07.08-7,8.06-3.58,15.21.14.29.02.64-.28.78-.08.04-.17.06-.25.06Z"/><path class="cls-1" d="M90.52,117.57s9.32-4.75,2.74-15.52"/><path class="cls-1" d="M90.53,118.16c-.21,0-.42-.12-.52-.32-.15-.29-.03-.64.25-.79.03-.02,3.42-1.8,4.47-5.5.76-2.72.11-5.81-1.96-9.19-.17-.28-.08-.64.19-.81.28-.17.64-.08.81.19,2.25,3.67,2.95,7.08,2.08,10.14-1.19,4.2-4.9,6.14-5.06,6.22-.08.04-.18.06-.27.06Z"/><path class="cls-1" d="M87.83,97.36s-8.26-7.3-15.85-3.67"/><path class="cls-1" d="M87.83,97.95c-.14,0-.28-.05-.39-.15-.08-.07-8.07-7-15.21-3.58-.3.14-.64.02-.78-.28-.14-.29-.02-.64.28-.78,7.85-3.76,16.15,3.45,16.5,3.76.24.21.27.59.05.83-.12.13-.28.2-.44.2Z"/><path class="cls-1" d="M67.81,95.41s4.75,9.32,15.52,2.74"/><path class="cls-1" d="M76.12,101.09c-.9,0-1.77-.12-2.61-.36-4.2-1.19-6.14-4.9-6.22-5.06-.15-.29-.03-.64.26-.79.29-.15.64-.03.79.25.02.04,1.8,3.43,5.5,4.47,2.72.76,5.81.11,9.19-1.96.28-.17.64-.08.81.19.17.28.08.64-.19.81-2.66,1.63-5.18,2.44-7.53,2.44Z"/><path class="cls-1" d="M33.14,113.94l-1.68.26-.65-4.72H2.33l-.65,4.72-1.68-.26.13-7.04-.13-6.2,1.68-.26.65,3.94h13.11l-.71-1.42-12.4-14.4-.65,3.81-1.68-.26.13-5.43-.13-5.1,1.68-.26.77,3.94,12.79,14.53.65-1.16,15.05-15.83.52-2.71,1.68.26-.13,4.33.13,3.81-15.37,15.11-1.36.77h14.4l.65-3.94,1.68.26-.13,6.2.13,7.04Z"/><path class="cls-1" d="M83.26,33.14l-.26-1.74,4.72-.58V2.33l-4.72-.64.26-1.68,7.04.13,7.04-.13.26,1.68-4.78.64v28.49l4.78.58-.26,1.74-7.04-.13-7.04.13Z"/><path class="cls-1" d="M148.53,107.1l25.45-19.51,3.29-.84h-26.35l-.65,4.46-1.68-.26.13-5.56-.13-6.46,1.68-.26.65,4.72h28.16l.97-4.46,1.68.26-.13,4.84.13,3.68-23.06,18.22-2.91,1.1h23.64l.65-4.46,1.68.26-.13,5.49.13,6.46-1.68.26-.65-4.78h-30.88v-3.16Z"/></symbol></defs><g id="Layer_1-2"><use width="181.73" height="118.16" xlink:href="#Logotyp"/></g></svg>